<?xml version="1.0" encoding="utf-8"?>
<!-- Generator: Adobe Illustrator 15.1.0, SVG Export Plug-In . SVG Version: 6.00 Build 0)  -->
<!DOCTYPE svg PUBLIC "-//W3C//DTD SVG 1.1//EN" "http://www.w3.org/Graphics/SVG/1.1/DTD/svg11.dtd">
<svg version="1.1" id="Layer_1" xmlns="http://www.w3.org/2000/svg" xmlns:xlink="http://www.w3.org/1999/xlink" x="0px" y="0px"
	 width="689.174px" height="198.44px" viewBox="0 0 689.174 198.44" enable-background="new 0 0 689.174 198.44"
	 xml:space="preserve">
<g>
	<polyline display="none" fill="#FFFFFF" points="689.174,0 59.019,0 0,198.44 	"/>
	<polygon fill="#FFFFFF" points="689.174,0 630.156,198.44 0,198.44 59.019,0 	"/>
	<polygon fill="#97104A" points="227.845,126.979 230.9,119.22 205.818,119.22 209.484,109.824 237.744,109.824 240.799,102.064 
		204.142,102.064 193.116,130.326 201.487,130.326 202.792,126.979 	"/>
	<polygon fill="#97104A" points="191.587,148.245 228.536,148.245 231.601,140.485 202.983,140.485 205.985,132.793 
		197.615,132.793 	"/>
	<polygon fill="#97104A" points="235.546,124.581 233.073,130.326 255.812,130.326 258.284,124.581 	"/>
	<path fill="#97104A" d="M297.371,123.4c-2.193-1.585-6.81-2.985-14.113-4.284c-3.432-0.622-5.749-1.283-6.882-1.966
		c-1.141-0.688-1.172-1.424-1.073-1.989c0.045-0.252,0.126-0.535,0.239-0.835c1.285-3.27,5.56-4.927,12.711-4.927
		c3.841,0,6.506,0.475,7.92,1.406c0.99,0.66,1.303,1.926,0.961,3.869c-0.159,0.897-0.397,1.93-0.722,3.1l-0.377,1.357h8.093
		l0.372-0.991c0.562-1.492,0.966-2.924,1.202-4.258c1.432-8.124-3.578-12.244-14.891-12.244c-12.41,0-20.293,4.095-23.423,12.158
		c-0.323,0.808-0.554,1.595-0.684,2.338c-0.615,3.481,0.683,6.183,3.847,8.023c1.686,0.997,4.972,2.012,10.045,3.101
		c4.089,0.883,6.688,1.49,7.711,1.799c1.572,0.498,2.33,0.948,2.712,1.269h9.104C300.484,127.352,299.596,125.004,297.371,123.4"/>
	<polygon fill="#97104A" points="269.418,126.824 260.968,126.824 259.635,130.326 268.001,130.326 	"/>
	<path fill="#97104A" d="M295.638,132.887c0.358,0.334,0.467,0.769,0.354,1.41c-0.057,0.319-0.181,0.724-0.365,1.193
		c-0.706,1.778-2.301,3.102-4.89,4.052c-2.389,0.907-5.274,1.368-8.578,1.368c-11.449,0-10.693-4.287-10.445-5.695
		c0.106-0.6,0.3-1.238,0.581-1.914l0.205-0.508h-8.365l-0.059,0.15c-0.475,1.22-0.81,2.37-0.995,3.422
		c-0.795,4.504,0.751,7.845,4.589,9.924c2.88,1.58,6.917,2.381,11.996,2.381c4.855,0,9.39-0.854,13.488-2.542
		c5.332-2.229,8.903-5.592,10.599-9.964c0.394-0.948,0.672-1.883,0.83-2.779c0.037-0.209,0.014-0.389,0.039-0.592h-9.104
		C295.555,132.823,295.608,132.859,295.638,132.887"/>
	<path fill="#97104A" d="M327.986,128.926c4.628,0,8.916-0.882,12.743-2.622v-0.001c5.078-2.313,8.573-5.809,10.406-10.423
		c0.415-1.125,0.714-2.207,0.892-3.213c0.853-4.837-0.793-10.603-13.477-10.603h-21.501l-11.026,28.262h8.37l0.545-1.4H327.986z
		 M322.333,109.824h14.146c7.621,0,7.098,2.964,6.926,3.938c-0.09,0.509-0.26,1.068-0.517,1.691
		c-0.68,1.754-2.034,3.115-4.143,4.162c-2.061,1.029-4.476,1.552-7.182,1.552H317.96L322.333,109.824z"/>
	<polygon fill="#97104A" points="304.495,148.245 312.866,148.245 318.893,132.793 310.522,132.793 	"/>
	<path fill="#97104A" d="M401.486,118.872c0.932-5.284-0.236-9.44-3.471-12.352c-3.15-2.835-7.98-4.273-14.358-4.273
		c-7.329,0-13.941,1.859-19.647,5.528c-5.934,3.818-10.274,9.186-12.911,15.966c-0.714,1.899-1.23,3.74-1.536,5.473
		c-0.067,0.381-0.101,0.743-0.146,1.112h8.592c-0.008-0.746,0.059-1.54,0.208-2.391c0.206-1.167,0.561-2.414,1.049-3.692
		c1.786-4.542,4.584-8.082,8.317-10.522c3.77-2.464,8.349-3.713,13.61-3.713c5.173,0,8.73,1.198,10.578,3.561
		c1.204,1.645,1.566,3.717,1.104,6.338c-0.206,1.165-0.586,2.445-1.135,3.826c-0.957,2.494-2.258,4.679-3.835,6.594h8.941
		c1.188-1.89,2.22-3.905,3.051-6.07C400.654,122.382,401.188,120.571,401.486,118.872"/>
	<path fill="#97104A" d="M387.827,136.998c-3.85,2.596-8.465,3.912-13.72,3.912c-4.347,0-7.526-0.948-9.451-2.817
		c-1.411-1.371-2.119-3.119-2.147-5.3h-8.594c-0.598,4.786,0.54,8.635,3.435,11.427c3.053,2.953,7.862,4.45,14.296,4.45
		c7.38,0,14.101-1.987,19.975-5.906c3.996-2.666,7.238-6.018,9.726-9.971h-8.942C391.082,134.398,389.572,135.821,387.827,136.998"
		/>
	<polygon fill="#97104A" points="400.488,148.245 408.855,148.245 414.941,132.793 406.516,132.793 	"/>
	<path fill="#97104A" d="M436.422,134.472c-0.066,0.378-0.205,0.805-0.43,1.322l-4.852,12.451h8.371l4.715-12.105
		c0.4-1.013,0.686-2.002,0.85-2.938c0.025-0.142,0.021-0.269,0.039-0.408h-8.947C436.594,133.447,436.486,134.112,436.422,134.472"
		/>
	<path fill="#97104A" d="M447.641,114.996c0.402-1.021,0.689-2.01,0.854-2.938c1.17-6.632-3.279-9.994-13.221-9.994h-22.23
		l-11.025,28.262h8.424l0.719-1.825h13.814c4.426,0,6.096,0.902,6.695,1.825h8.947c0.32-2.272-0.055-4.194-1.17-5.712
		C443.277,122.348,446.029,119.118,447.641,114.996 M439.441,114.696c-0.768,1.998-2.215,3.48-4.424,4.529
		c-2.148,1.006-4.783,1.516-7.826,1.516h-13.07l4.205-10.917h14.633c7.498,0,7.029,2.66,6.875,3.533
		C439.764,113.76,439.631,114.208,439.441,114.696"/>
	<polygon fill="#97104A" points="475.973,109.824 491.717,109.824 494.781,102.064 454.904,102.064 451.842,109.824 
		467.604,109.824 459.619,130.326 467.986,130.326 	"/>
	<polygon fill="#97104A" points="464.117,132.793 458.1,148.245 466.467,148.245 472.486,132.793 	"/>
	<path fill="#858482" d="M203.959,63.134l4.477,0.438V50.856h-4.477V63.134z M194.936,62.252l0.849,0.083V50.856h-0.849V62.252z
		 M211.636,63.886l2.701,0.264l2.698-0.264V50.856h-5.399V63.886z M198.488,62.6l2.775,0.272V50.856h-2.775V62.6z M232.887,50.856
		v11.48l0.138-0.01l0.779-0.075V50.856H232.887z M220.235,63.575l4.477-0.438V50.856h-4.477V63.575z M227.41,62.874l2.772-0.271
		V50.856h-2.772V62.874z"/>
	<path fill="#858482" d="M203.959,90.647h4.477V77.937l-4.477,0.438V90.647z M194.936,90.647h0.849V79.173l-0.849,0.085V90.647z
		 M211.636,90.647h5.399V77.623l-2.698-0.262l-2.701,0.262V90.647z M198.488,90.647h2.775V78.639l-2.775,0.269V90.647z
		 M233.804,90.647v-11.39l-0.779-0.078l-0.138-0.011v11.479H233.804z M220.235,90.647h4.477V78.371l-4.477-0.438V90.647z
		 M227.41,90.647h2.772V78.902l-2.772-0.268V90.647z"/>
	<path fill="#97104A" d="M194.441,76.461h1.848v-11.41h-1.848V76.461z M198.063,76.461h3.628v-11.41h-3.628V76.461z M203.463,76.461
		h5.466v-11.41h-5.466V76.461z M210.708,76.461h7.256v-11.41h-7.256V76.461z M219.732,76.461h5.476v-11.41h-5.476V76.461z
		 M226.985,76.461h3.625v-11.41h-3.625V76.461z M232.383,76.461h1.849v-11.41h-1.849V76.461z"/>
	<path fill="#858482" d="M275.895,54.616h13.017v36.082h4.514V54.616h13.016v-3.761h-30.547V54.616z M241.482,54.616h13.016v36.082
		h4.514V54.616h13.014v-3.761h-30.544V54.616z M336.904,50.855v25.799c0,6.595-4.254,10.693-11.1,10.693
		c-6.773,0-10.981-4.054-10.981-10.578V50.855h-4.513V76.77c0,8.744,6.248,14.623,15.551,14.623c9.307,0,15.558-5.879,15.558-14.623
		V50.855H336.904z M331.962,50.855h-3.405v4.636h3.405V50.855z M323.173,50.855h-3.406v4.636h3.406V50.855z"/>
</g>
</svg>
